<?xml version="1.0" encoding="UTF-8" standalone="no"?><!DOCTYPE svg PUBLIC "-//W3C//DTD SVG 1.1//EN" "http://www.w3.org/Graphics/SVG/1.1/DTD/svg11.dtd"><svg width="100%" height="100%" viewBox="0 0 84 84" version="1.1" xmlns="http://www.w3.org/2000/svg" xmlns:xlink="http://www.w3.org/1999/xlink" xml:space="preserve" xmlns:serif="http://www.serif.com/" style="fill-rule:evenodd;clip-rule:evenodd;stroke-linejoin:round;stroke-miterlimit:2;"><path d="M41.667,1.667c-22.096,0 -40.005,17.908 -40.005,40c0,22.096 17.909,40.004 40.005,40.004c22.087,0 40,-17.908 40,-40.004c0,-22.092 -17.913,-40 -40,-40Zm13.234,47.048c0,0 -0.013,-4.228 -0.013,-27.023l-3.606,0l0,5.011c-0.1,0.038 -0.149,-0.062 -0.199,-0.149c-1.194,-2.574 -4.465,-5.758 -9.451,-5.72c-6.455,0.049 -10.844,3.88 -12.511,9.675c-0.535,1.853 -0.721,3.743 -0.684,5.67c0.212,9.688 5.609,14.65 13.978,14.327c3.594,-0.137 6.778,-2.115 8.581,-5.621c0.062,-0.125 0.137,-0.237 0.211,-0.361c0.025,0.012 0.05,0.012 0.075,0.025c0.037,0.472 0.025,3.818 0.012,4.29c-0.025,1.841 -0.248,3.669 -0.895,5.41c-0.97,2.611 -2.773,4.315 -5.534,4.912c-2.214,0.485 -4.427,0.472 -6.616,-0.149c-2.674,-0.759 -4.539,-2.363 -5.111,-5.199c-0.037,-0.199 -0.162,-0.161 -0.286,-0.161l-3.333,0c0.1,1.318 0.398,2.524 1.057,3.631c3.01,5.037 10.285,6.031 15.943,4.651c6.205,-1.53 8.369,-6.827 8.382,-13.219Zm-3.744,-15.172c0.635,4.639 -0.584,9.824 -4.464,12.523c-2.773,1.927 -6.566,1.753 -8.805,0.709c-4.613,-2.152 -6.155,-7.288 -5.819,-12.088c0.534,-7.573 5.086,-10.931 9.364,-10.881c5.832,-0.025 8.929,3.954 9.724,9.737Z" style="fill:#fff;"/></svg>