<?xml version="1.0" encoding="UTF-8" standalone="no"?>
<svg
   xmlns:dc="http://purl.org/dc/elements/1.1/"
   xmlns:cc="http://creativecommons.org/ns#"
   xmlns:rdf="http://www.w3.org/1999/02/22-rdf-syntax-ns#"
   xmlns:svg="http://www.w3.org/2000/svg"
   xmlns="http://www.w3.org/2000/svg"
   xmlns:sodipodi="http://sodipodi.sourceforge.net/DTD/sodipodi-0.dtd"
   xmlns:inkscape="http://www.inkscape.org/namespaces/inkscape"
   inkscape:version="1.0 (6e3e5246a0, 2020-05-07)"
   sodipodi:docname="ngp-logo-flattened.svg"
   id="svg83"
   style="fill-rule:evenodd;clip-rule:evenodd;stroke-linejoin:round;stroke-miterlimit:2;"
   xml:space="preserve"
   version="1.1"
   viewBox="0 0 1774 458"
   height="100%"
   width="100%"><metadata
   id="metadata89"><rdf:RDF><cc:Work
       rdf:about=""><dc:format>image/svg+xml</dc:format><dc:type
         rdf:resource="http://purl.org/dc/dcmitype/StillImage" /><dc:title></dc:title></cc:Work></rdf:RDF></metadata><defs
   id="defs87" /><sodipodi:namedview
   inkscape:current-layer="Horizontal"
   inkscape:window-maximized="0"
   inkscape:window-y="25"
   inkscape:window-x="0"
   inkscape:cy="229"
   inkscape:cx="887"
   inkscape:zoom="0.67925592"
   showgrid="false"
   id="namedview85"
   inkscape:window-height="783"
   inkscape:window-width="1911"
   inkscape:pageshadow="2"
   inkscape:pageopacity="0"
   guidetolerance="10"
   gridtolerance="10"
   objecttolerance="10"
   borderopacity="1"
   bordercolor="#666666"
   pagecolor="#ffffff" />
    <g
   id="Horizontal">
        <g
   style="fill:#ffffff"
   id="name">
            <path
   id="path2"
   style="fill:#ffffff;fill-rule:nonzero"
   d="M637.581,114.06C637.581,115.253 637.199,115.897 636.435,115.993C630.47,116.661 626.378,117.761 624.159,119.29C621.94,120.819 620.782,123.759 620.687,128.108L619.112,212.486C619.112,213.441 618.539,213.918 617.394,213.918C616.821,213.918 616.058,213.536 615.103,212.773L541.302,129.379L540.299,195.593C540.252,195.975 540.228,196.332 540.228,196.667C540.228,200.293 541.373,202.858 543.664,204.362C545.954,205.865 550.082,206.974 556.048,207.69C556.811,207.786 557.193,208.43 557.193,209.623C557.193,210.959 556.811,211.627 556.048,211.627C553.566,211.627 550.154,211.484 545.811,211.198C541.755,210.912 538.629,210.768 536.434,210.768C534.048,210.768 530.827,210.912 526.77,211.198C522.857,211.484 519.827,211.627 517.679,211.627C516.916,211.627 516.534,210.959 516.534,209.623C516.534,208.43 516.963,207.786 517.822,207.69C523.74,206.974 527.796,205.863 529.991,204.359C532.187,202.855 533.356,199.93 533.499,195.584L536.004,128.171L536.004,127.526C536.004,123.658 534.883,120.96 532.64,119.431C530.397,117.903 526.221,116.757 520.113,115.993C519.445,115.993 519.111,115.336 519.111,114.024C519.111,112.712 519.493,112.056 520.256,112.056C521.926,112.056 524.265,112.199 527.271,112.485C529.944,112.771 531.948,112.915 533.284,112.915C534.954,112.915 536.959,112.771 539.297,112.485C541.683,112.199 543.735,112.056 545.453,112.056L614.388,189.15L614.388,128.114C614.388,124.05 613.23,121.193 610.916,119.543C608.601,117.893 604.318,116.71 598.067,115.993C597.303,115.897 596.921,115.253 596.921,114.06C596.921,112.724 597.303,112.056 598.067,112.056C600.644,112.056 604.08,112.199 608.375,112.485C612.383,112.771 615.485,112.915 617.68,112.915C620.067,112.915 623.288,112.771 627.344,112.485C631.257,112.199 634.288,112.056 636.435,112.056C637.199,112.056 637.581,112.724 637.581,114.06Z" />
            <path
   id="path4"
   style="fill:#ffffff;fill-rule:nonzero"
   d="M657.684,123.079C657.684,125.084 656.956,126.825 655.501,128.305C654.045,129.784 652.291,130.524 650.239,130.524C648.187,130.524 646.434,129.784 644.978,128.305C643.523,126.825 642.795,125.084 642.795,123.079C642.795,120.98 643.511,119.214 644.942,117.782C646.374,116.35 648.14,115.635 650.239,115.635C652.291,115.635 654.045,116.35 655.501,117.782C656.956,119.214 657.684,120.98 657.684,123.079ZM667.706,209.623C667.706,210.959 667.324,211.627 666.56,211.627C664.604,211.627 662.098,211.484 659.044,211.198C655.619,210.912 652.744,210.768 650.418,210.768C648.046,210.768 645.194,210.912 641.864,211.198C638.858,211.484 636.376,211.627 634.42,211.627C633.656,211.627 633.274,210.959 633.274,209.623C633.274,208.43 633.656,207.786 634.42,207.69C638.476,207.166 641.089,206.189 642.258,204.76C643.427,203.33 644.012,200.281 644.012,195.611L644.012,169.164C644.012,165.352 643.523,162.851 642.544,161.659C641.566,160.468 639.43,159.681 636.138,159.3C635.374,159.3 634.992,158.668 634.992,157.402C634.992,156.234 635.373,155.65 636.134,155.65C641.129,154.361 645.221,152.989 648.408,151.533C651.595,150.078 653.593,148.873 654.402,147.919C654.878,147.346 655.402,147.06 655.973,147.06C657.304,147.06 657.97,147.441 657.97,148.205C657.207,158.895 656.825,167.198 656.825,173.116L656.825,195.593C656.825,200.27 657.41,203.324 658.579,204.755C659.748,206.187 662.408,207.165 666.56,207.69C667.324,207.786 667.706,208.43 667.706,209.623Z" />
            <path
   id="path6"
   style="fill:#ffffff;fill-rule:nonzero"
   d="M728.969,158.942C728.969,162.856 727.013,164.812 723.099,164.812C721.429,164.812 720.057,164.454 718.983,163.738C717.91,163.023 716.824,161.472 715.726,159.085C714.438,156.27 713.066,154.421 711.61,153.538C710.155,152.655 708.258,152.214 705.92,152.214C700.145,152.214 695.743,154.612 692.712,159.408C689.682,164.204 688.167,171.207 688.167,180.417C688.167,188.1 690.076,194.292 693.894,198.993C697.711,203.694 702.818,206.044 709.212,206.044C716.466,206.044 722.217,203.777 726.464,199.244L726.822,199.1C727.251,199.1 727.669,199.375 728.074,199.924C728.48,200.472 728.683,201.081 728.683,201.749C728.683,202.703 727.287,204.35 724.495,206.688C721.704,209.027 718.649,210.792 715.333,211.985C712.016,213.178 708.497,213.775 704.774,213.775C696.232,213.775 688.919,210.637 682.834,204.362C676.75,198.086 673.707,190.152 673.707,180.56C673.707,171.064 676.893,163.202 683.264,156.974C689.634,150.746 697.186,147.632 705.92,147.632C712.362,147.632 717.814,148.742 722.276,150.961C726.738,153.18 728.969,155.84 728.969,158.942Z" />
            <path
   id="path8"
   style="fill:#ffffff;fill-rule:nonzero"
   d="M804.12,181.133C804.12,190.63 801.027,198.444 794.84,204.576C788.653,210.709 780.639,213.775 770.798,213.775C760.957,213.775 752.931,210.697 746.721,204.541C740.51,198.385 737.405,190.582 737.405,181.133C737.405,171.541 740.534,163.559 746.792,157.189C753.05,150.818 761.052,147.632 770.798,147.632C780.592,147.632 788.594,150.806 794.804,157.153C801.015,163.5 804.12,171.493 804.12,181.133ZM789.66,180.99C789.66,172.257 787.978,165.277 784.614,160.052C781.249,154.826 776.632,152.214 770.762,152.214C764.94,152.214 760.335,154.838 756.947,160.088C753.559,165.337 751.864,172.304 751.864,180.99C751.864,189.628 753.535,196.488 756.875,201.57C760.216,206.652 764.845,209.194 770.762,209.194C776.68,209.194 781.309,206.676 784.649,201.642C787.99,196.607 789.66,189.723 789.66,180.99Z" />
            <path
   id="path10"
   style="fill:#ffffff;fill-rule:nonzero"
   d="M844.625,209.48C844.625,210.816 844.243,211.484 843.479,211.484C841.523,211.484 839.017,211.365 835.963,211.126C832.527,210.888 829.64,210.768 827.301,210.768C825.011,210.768 822.171,210.888 818.783,211.126C815.729,211.365 813.224,211.484 811.267,211.484C810.503,211.484 810.122,210.816 810.122,209.48C810.122,208.287 810.503,207.643 811.267,207.547C815.323,207.071 817.96,206.105 819.177,204.651C820.394,203.196 821.002,200.133 821.002,195.46L821.002,129.013C821.002,125.15 820.525,122.623 819.571,121.431C818.616,120.239 816.421,119.452 812.985,119.071C812.221,118.973 811.84,118.364 811.84,117.244C811.84,116.076 812.221,115.491 812.985,115.491C817.996,114.203 822.1,112.831 825.297,111.375C828.495,109.92 830.499,108.691 831.31,107.689C831.787,107.164 832.312,106.902 832.885,106.902C834.221,106.902 834.889,107.283 834.889,108.047C834.126,118.737 833.744,127.04 833.744,132.958L833.744,195.45C833.744,200.126 834.34,203.192 835.534,204.648C836.727,206.104 839.375,207.07 843.479,207.547C844.243,207.643 844.625,208.287 844.625,209.48Z" />
            <path
   id="path12"
   style="fill:#ffffff;fill-rule:nonzero"
   d="M895.23,213.202C892.573,213.202 890.26,212.546 888.291,211.234C886.322,209.921 884.982,208.144 884.27,205.901C879.164,211.15 872.483,213.775 864.227,213.775C859.932,213.775 856.424,212.451 853.704,209.802C850.984,207.153 849.624,203.849 849.624,199.888C849.624,190.105 861.22,182.183 884.413,176.122L884.843,164.955L884.843,164.597C884.843,161.161 883.996,158.429 882.302,156.401C880.607,154.373 878.353,153.359 875.537,153.359C872.721,153.359 870.335,154.039 868.379,155.399C866.422,156.759 865.42,158.465 865.372,160.517C865.325,163.571 864.525,165.957 862.974,167.675C861.423,169.393 859.359,170.252 856.782,170.252C855.255,170.252 854.014,169.799 853.06,168.892C852.106,167.986 851.628,166.769 851.628,165.242C851.628,161.567 854.969,157.713 861.65,153.681C868.331,149.648 874.535,147.632 880.262,147.632C885.415,147.632 889.591,149.159 892.789,152.214C895.986,155.268 897.585,159.372 897.585,164.526L897.585,165.385L896.511,197.74L896.511,198.241C896.511,203.252 898.133,205.758 901.378,205.758C902.953,205.758 904.791,204.803 906.89,202.894L907.391,202.751C907.773,202.751 908.131,203.002 908.465,203.503C908.799,204.004 908.966,204.541 908.966,205.113C908.966,206.497 907.523,208.191 904.635,210.196C901.748,212.2 898.613,213.202 895.23,213.202ZM884.27,180.918C870.383,184.077 863.44,189.293 863.44,196.567C863.44,203.362 866.055,206.76 871.286,206.76C873.806,206.76 876.291,206.126 878.74,204.858C881.189,203.59 882.841,202.023 883.697,200.156L884.27,180.918Z" />
            <path
   id="path14"
   style="fill:#ffffff;fill-rule:nonzero"
   d="M958.562,193.159C958.562,198.981 956.275,203.873 951.701,207.833C947.127,211.794 941.6,213.775 935.121,213.775C932.834,213.775 929.308,213.274 924.544,212.272C920.97,211.556 918.54,211.198 917.254,211.198C916.873,207.857 915.992,202.775 914.61,195.951C914.61,195.235 915.302,194.877 916.686,194.877C917.831,194.877 918.523,195.259 918.762,196.022C919.859,199.554 922.031,202.632 925.276,205.256C928.521,207.881 931.861,209.194 935.297,209.194C938.877,209.194 941.656,208.215 943.637,206.259C945.617,204.302 946.608,201.558 946.608,198.027C946.608,195.784 945.784,193.803 944.138,192.085C942.492,190.367 938.924,188.244 933.436,185.714C926.23,182.422 921.47,179.32 919.155,176.409C916.841,173.498 915.684,170.014 915.684,165.957C915.684,160.947 917.855,156.64 922.198,153.037C926.54,149.434 931.671,147.632 937.588,147.632C940.07,147.632 943.553,148.062 948.039,148.921C950.521,149.398 952.143,149.637 952.907,149.637C953.05,155.268 953.36,160.064 953.837,164.025C953.837,164.741 953.145,165.098 951.761,165.098C950.568,165.098 949.9,164.717 949.757,163.953C949.234,160.469 947.925,157.642 945.832,155.471C943.739,153.299 941.242,152.214 938.34,152.214C930.919,152.214 927.209,155.459 927.209,161.949C927.209,164.144 928.087,166.172 929.845,168.033C931.602,169.895 935.426,172.304 941.317,175.263C948.348,178.795 952.98,181.849 955.213,184.426C957.445,187.003 958.562,189.914 958.562,193.159Z" />
            <path
   id="path16"
   style="fill:#ffffff;fill-rule:nonzero"
   d="M1101.63,167.675C1101.63,168.868 1101.25,169.513 1100.49,169.608C1094.74,170.276 1090.84,171.35 1088.77,172.829C1086.7,174.309 1085.67,177.268 1085.67,181.706L1085.67,190.152C1085.67,197.502 1086.19,202.56 1087.24,205.328C1080.89,207.857 1074.04,209.921 1066.68,211.52C1059.33,213.119 1052.84,213.918 1047.2,213.918C1036.31,213.918 1026.76,211.771 1018.54,207.476C1010.33,203.181 1003.93,197.036 999.345,189.043C994.761,181.05 992.469,172.161 992.469,162.378C992.469,152.643 994.952,143.707 999.919,135.571C1004.89,127.434 1011.74,121.123 1020.48,116.637C1029.22,112.151 1039.13,109.908 1050.21,109.908C1054.51,109.908 1060.29,110.672 1067.55,112.199C1073.94,113.535 1078.84,114.203 1082.23,114.203C1082.85,120.884 1083.95,128.997 1085.53,138.541C1085.53,139.305 1084.76,139.687 1083.24,139.687C1082.23,139.687 1081.64,139.305 1081.45,138.541C1077.24,122.507 1066.06,114.489 1047.91,114.489C1036.69,114.489 1027.27,119.118 1019.64,128.376C1012.03,137.634 1008.22,148.968 1008.22,162.378C1008.22,175.406 1011.99,186.49 1019.53,195.629C1027.07,204.767 1036.28,209.337 1047.16,209.337C1063.14,209.337 1071.14,205.369 1071.14,197.433L1071.14,178.5C1071.14,175.871 1069.87,173.994 1067.34,172.871C1064.82,171.747 1058.75,170.707 1049.16,169.751C1048.4,169.751 1048.02,169.048 1048.02,167.641C1048.02,166.328 1048.4,165.671 1049.16,165.671C1052.36,165.671 1057.08,165.79 1063.34,166.029C1069.35,166.268 1073.81,166.387 1076.72,166.387C1079.59,166.387 1083.38,166.268 1088.1,166.029C1093.16,165.79 1097.29,165.671 1100.49,165.671C1101.25,165.671 1101.63,166.339 1101.63,167.675Z" />
            <path
   id="path18"
   style="fill:#ffffff;fill-rule:nonzero"
   d="M1152.02,213.202C1149.37,213.202 1147.05,212.546 1145.08,211.234C1143.12,209.921 1141.78,208.144 1141.06,205.901C1135.96,211.15 1129.28,213.775 1121.02,213.775C1116.73,213.775 1113.22,212.451 1110.5,209.802C1107.78,207.153 1106.42,203.849 1106.42,199.888C1106.42,190.105 1118.01,182.183 1141.21,176.122L1141.64,164.955L1141.64,164.597C1141.64,161.161 1140.79,158.429 1139.1,156.401C1137.4,154.373 1135.15,153.359 1132.33,153.359C1129.52,153.359 1127.13,154.039 1125.17,155.399C1123.21,156.759 1122.21,158.465 1122.16,160.517C1122.12,163.571 1121.32,165.957 1119.77,167.675C1118.22,169.393 1116.15,170.252 1113.58,170.252C1112.05,170.252 1110.81,169.799 1109.85,168.892C1108.9,167.986 1108.42,166.769 1108.42,165.242C1108.42,161.567 1111.76,157.713 1118.44,153.681C1125.12,149.648 1131.33,147.632 1137.06,147.632C1142.21,147.632 1146.38,149.159 1149.58,152.214C1152.78,155.268 1154.38,159.372 1154.38,164.526L1154.38,165.385L1153.3,197.74L1153.3,198.241C1153.3,203.252 1154.93,205.758 1158.17,205.758C1159.75,205.758 1161.58,204.803 1163.68,202.894L1164.18,202.751C1164.57,202.751 1164.92,203.002 1165.26,203.503C1165.59,204.004 1165.76,204.541 1165.76,205.113C1165.76,206.497 1164.32,208.191 1161.43,210.196C1158.54,212.2 1155.41,213.202 1152.02,213.202ZM1141.06,180.918C1127.18,184.077 1120.23,189.293 1120.23,196.567C1120.23,203.362 1122.85,206.76 1128.08,206.76C1130.6,206.76 1133.08,206.126 1135.53,204.858C1137.98,203.59 1139.63,202.023 1140.49,200.156L1141.06,180.918Z" />
            <path
   id="path20"
   style="fill:#ffffff;fill-rule:nonzero"
   d="M1237.12,206.941C1237.12,207.963 1236.73,208.523 1235.97,208.621C1227.29,209.563 1221.34,211.213 1218.15,213.57C1217.48,214.088 1216.81,214.348 1216.14,214.348C1215.19,214.348 1214.71,213.966 1214.71,213.202L1215.28,204.183C1208.22,210.577 1201.83,213.775 1196.1,213.775C1189.56,213.775 1184.47,211.923 1180.82,208.22C1177.17,204.518 1175.34,199.488 1175.34,193.133L1175.34,166.329C1175.34,162.076 1174.79,159.257 1173.69,157.871C1172.6,156.486 1170.42,155.793 1167.18,155.793C1166.56,155.793 1165.87,155.817 1165.1,155.864C1164.39,155.864 1164.03,155.255 1164.03,154.036C1164.03,152.535 1164.41,151.784 1165.17,151.784C1170.69,151.784 1177.92,150.71 1186.87,148.563C1187.73,148.563 1188.15,149.159 1188.15,150.352L1188.15,189.723C1188.15,195.116 1189.18,199.041 1191.24,201.498C1193.3,203.956 1196.53,205.185 1200.93,205.185C1203.75,205.185 1206.24,204.659 1208.39,203.608C1210.55,202.556 1212.84,200.693 1215.28,198.017L1215.28,166.331C1215.28,162.125 1214.72,159.317 1213.6,157.907C1212.48,156.498 1210.25,155.793 1206.91,155.793C1206.34,155.793 1205.67,155.817 1204.9,155.864C1204.19,155.864 1203.83,155.255 1203.83,154.036C1203.83,152.535 1204.21,151.784 1204.98,151.784C1210.51,151.784 1217.77,150.71 1226.74,148.563C1227.6,148.563 1228.03,149.159 1228.03,150.352L1228.03,196.022C1228.03,199.315 1228.49,201.522 1229.42,202.644C1230.35,203.765 1232.54,204.565 1235.97,205.042C1236.73,205.042 1237.12,205.675 1237.12,206.941Z" />
            <path
   id="path22"
   style="fill:#ffffff;fill-rule:nonzero"
   d="M1287.07,154.647C1287.07,157.224 1286.45,158.513 1285.21,158.513L1263.88,157.94L1263.88,192.3C1263.88,201.272 1267.07,205.758 1273.47,205.758C1277.43,205.758 1281.03,204.827 1284.28,202.966C1284.66,202.966 1285.01,203.216 1285.32,203.717C1285.63,204.219 1285.78,204.755 1285.78,205.328C1285.78,206.521 1284.01,208.132 1280.46,210.16C1276.91,212.188 1272.92,213.202 1268.49,213.202C1263.06,213.202 1258.73,211.544 1255.49,208.227C1252.25,204.91 1250.63,200.532 1250.63,195.092L1250.63,194.447L1250.92,159.658C1250.92,158.322 1250.35,157.654 1249.2,157.654L1243.76,157.654C1242.71,157.654 1242.19,157.045 1242.19,155.826C1242.19,154.889 1242.62,154.186 1243.47,153.717C1250.08,149.788 1255.84,144.254 1260.74,137.114C1261.26,136.347 1261.93,135.964 1262.74,135.964C1264.07,135.964 1264.74,136.346 1264.74,137.11L1264.16,150.782L1285.21,150.782C1286.45,150.782 1287.07,152.07 1287.07,154.647Z" />
            <path
   id="path24"
   style="fill:#ffffff;fill-rule:nonzero"
   d="M1368.31,209.623C1368.31,210.959 1367.92,211.627 1367.16,211.627C1365.25,211.627 1362.89,211.484 1360.07,211.198C1357.01,210.912 1354.33,210.768 1352.03,210.768C1349.64,210.768 1346.88,210.912 1343.77,211.198C1340.94,211.484 1338.57,211.627 1336.65,211.627C1335.88,211.627 1335.5,210.959 1335.5,209.623C1335.5,208.43 1335.88,207.786 1336.65,207.69C1339.95,207.309 1342.11,206.378 1343.14,204.899C1344.17,203.419 1344.68,200.317 1344.68,195.593L1344.68,171.684C1344.68,161.376 1339.99,156.222 1330.62,156.222C1324.69,156.222 1319.57,158.608 1315.26,163.38L1315.26,195.593C1315.26,199.888 1315.88,202.87 1317.13,204.541C1318.37,206.211 1320.81,207.261 1324.45,207.69C1325.21,207.786 1325.6,208.43 1325.6,209.623C1325.6,210.959 1325.21,211.627 1324.45,211.627C1322.5,211.627 1319.95,211.484 1316.81,211.198C1313.28,210.912 1310.36,210.768 1308.02,210.768C1305.64,210.768 1302.92,210.912 1299.87,211.198C1297.15,211.484 1294.81,211.627 1292.86,211.627C1292.09,211.627 1291.71,210.959 1291.71,209.623C1291.71,208.43 1292.09,207.786 1292.86,207.69C1296.87,207.261 1299.47,206.319 1300.66,204.865C1301.85,203.411 1302.45,200.324 1302.45,195.603L1302.45,129.156C1302.45,125.294 1301.98,122.766 1301.05,121.574C1300.12,120.382 1297.96,119.596 1294.58,119.214C1293.81,119.116 1293.43,118.508 1293.43,117.39C1293.43,116.124 1293.81,115.491 1294.57,115.491C1302.71,113.583 1308.73,111.053 1312.63,107.904C1313.34,107.331 1313.93,107.045 1314.41,107.045C1315.74,107.045 1316.41,107.426 1316.41,108.19C1315.64,116.016 1315.26,124.32 1315.26,133.101L1315.26,157.368C1322.11,150.877 1328.86,147.632 1335.52,147.632C1342.32,147.632 1347.67,149.493 1351.57,153.216C1355.47,156.938 1357.42,161.949 1357.42,168.248L1357.42,195.593C1357.42,200.27 1358.03,203.336 1359.25,204.791C1360.47,206.247 1363.1,207.213 1367.16,207.69C1367.92,207.786 1368.31,208.43 1368.31,209.623Z" />
            <path
   id="path26"
   style="fill:#ffffff;fill-rule:nonzero"
   d="M1395.85,123.079C1395.85,125.084 1395.13,126.825 1393.67,128.305C1392.21,129.784 1390.46,130.524 1388.41,130.524C1386.36,130.524 1384.6,129.784 1383.15,128.305C1381.69,126.825 1380.96,125.084 1380.96,123.079C1380.96,120.98 1381.68,119.214 1383.11,117.782C1384.54,116.35 1386.31,115.635 1388.41,115.635C1390.46,115.635 1392.21,116.35 1393.67,117.782C1395.13,119.214 1395.85,120.98 1395.85,123.079ZM1405.88,209.623C1405.88,210.959 1405.49,211.627 1404.73,211.627C1402.77,211.627 1400.27,211.484 1397.21,211.198C1393.79,210.912 1390.91,210.768 1388.59,210.768C1386.21,210.768 1383.36,210.912 1380.03,211.198C1377.03,211.484 1374.55,211.627 1372.59,211.627C1371.83,211.627 1371.44,210.959 1371.44,209.623C1371.44,208.43 1371.83,207.786 1372.59,207.69C1376.64,207.166 1379.26,206.189 1380.43,204.76C1381.6,203.33 1382.18,200.281 1382.18,195.611L1382.18,169.164C1382.18,165.352 1381.69,162.851 1380.71,161.659C1379.74,160.468 1377.6,159.681 1374.31,159.3C1373.54,159.3 1373.16,158.668 1373.16,157.402C1373.16,156.234 1373.54,155.65 1374.3,155.65C1379.3,154.361 1383.39,152.989 1386.58,151.533C1389.76,150.078 1391.76,148.873 1392.57,147.919C1393.05,147.346 1393.57,147.06 1394.14,147.06C1395.47,147.06 1396.14,147.441 1396.14,148.205C1395.38,158.895 1394.99,167.198 1394.99,173.116L1394.99,195.593C1394.99,200.27 1395.58,203.324 1396.75,204.755C1397.92,206.187 1400.58,207.165 1404.73,207.69C1405.49,207.786 1405.88,208.43 1405.88,209.623Z" />
            <path
   id="path28"
   style="fill:#ffffff;fill-rule:nonzero"
   d="M1468.57,170.968C1468.57,172.304 1467.71,172.973 1465.99,172.973L1426.77,172.973C1426.48,175.55 1426.34,178.222 1426.34,180.99C1426.34,188.673 1428.16,194.579 1431.81,198.707C1435.46,202.835 1440.65,204.899 1447.38,204.899C1450.77,204.899 1454.18,203.992 1457.62,202.178C1461.05,200.365 1463.82,198.05 1465.92,195.235L1466.28,195.092C1466.71,195.092 1467.13,195.354 1467.53,195.879C1467.94,196.404 1468.14,197.024 1468.14,197.74C1468.14,198.742 1466.61,200.83 1463.56,204.004C1460.51,207.177 1457.19,209.599 1453.61,211.269C1450.03,212.94 1446.28,213.775 1442.37,213.775C1433.78,213.775 1426.55,210.625 1420.68,204.326C1414.81,198.027 1411.88,190.296 1411.88,181.133C1411.88,171.78 1414.75,163.858 1420.5,157.368C1426.25,150.877 1433.54,147.632 1442.37,147.632C1449.77,147.632 1455.98,150.054 1461.02,154.898C1466.05,159.742 1468.57,165.098 1468.57,170.968ZM1455.54,164.669C1455.54,161.09 1454.31,158.119 1451.86,155.757C1449.4,153.395 1446.24,152.214 1442.37,152.214C1438.7,152.214 1435.51,153.753 1432.81,156.831C1430.12,159.909 1428.29,163.953 1427.34,168.964L1447.24,168.391C1450.25,168.344 1452.38,168.057 1453.64,167.532C1454.91,167.007 1455.54,166.053 1455.54,164.669Z" />
            <path
   id="path30"
   style="fill:#ffffff;fill-rule:nonzero"
   d="M1526.11,154.791C1526.11,156.699 1525.53,158.322 1524.36,159.658C1523.19,160.994 1521.77,161.662 1520.1,161.662C1518,161.662 1515.92,160.971 1513.87,159.587C1512.25,158.489 1510.84,157.94 1509.65,157.94C1506.55,157.94 1503.35,159.754 1500.06,163.38L1500.06,195.593C1500.06,199.745 1500.77,202.644 1502.2,204.29C1503.63,205.937 1506.69,207.07 1511.37,207.69C1512.13,207.786 1512.51,208.43 1512.51,209.623C1512.51,210.959 1512.13,211.627 1511.37,211.627C1509.41,211.627 1506.64,211.484 1503.06,211.198C1499.11,210.912 1495.97,210.768 1493.65,210.768C1491.28,210.768 1488.4,210.912 1485.02,211.198C1481.97,211.484 1479.46,211.627 1477.51,211.627C1476.74,211.627 1476.36,210.959 1476.36,209.623C1476.36,208.43 1476.74,207.786 1477.51,207.69C1481.66,207.166 1484.32,206.189 1485.49,204.76C1486.66,203.33 1487.24,200.281 1487.24,195.611L1487.24,169.164C1487.24,165.352 1486.75,162.851 1485.77,161.659C1484.8,160.468 1482.61,159.681 1479.23,159.3C1478.46,159.3 1478.08,158.668 1478.08,157.402C1478.08,156.234 1478.46,155.65 1479.23,155.65C1483.95,154.456 1487.84,153.132 1490.91,151.677C1493.97,150.221 1495.98,148.968 1496.93,147.919C1497.5,147.346 1498.07,147.06 1498.63,147.06C1499.96,147.06 1500.63,147.441 1500.63,148.205L1500.06,157.224C1503.87,153.693 1507.15,151.211 1509.9,149.78C1512.64,148.348 1515.37,147.632 1518.09,147.632C1520.29,147.632 1522.17,148.348 1523.75,149.78C1525.32,151.211 1526.11,152.882 1526.11,154.791Z" />
            <path
   id="path32"
   style="fill:#ffffff;fill-rule:nonzero"
   d="M1568.91,179.129C1568.91,181.706 1568.29,182.994 1567.05,182.994L1529.82,182.994C1528.58,182.994 1527.96,181.706 1527.96,179.129C1527.96,176.456 1528.58,175.12 1529.82,175.12L1567.05,175.12C1568.29,175.12 1568.91,176.456 1568.91,179.129Z" />
            <path
   id="path34"
   style="fill:#ffffff;fill-rule:nonzero"
   d="M1655.94,141.261C1655.94,149.66 1652.71,156.711 1646.26,162.414C1639.8,168.117 1631.8,170.968 1622.27,170.968C1616.55,170.968 1610.93,170.73 1605.4,170.252L1605.4,195.593C1605.4,198.933 1605.82,201.272 1606.65,202.608C1607.49,203.944 1608.95,205.006 1611.02,205.793C1613.1,206.581 1616.14,207.213 1620.15,207.69C1620.91,207.786 1621.29,208.43 1621.29,209.623C1621.29,210.959 1620.91,211.627 1620.15,211.627C1616.95,211.627 1613.16,211.484 1608.77,211.198C1604.57,210.912 1601.01,210.768 1598.1,210.768C1595.19,210.768 1591.61,210.912 1587.36,211.198C1582.93,211.484 1579.11,211.627 1575.91,211.627C1575.15,211.627 1574.77,210.959 1574.77,209.623C1574.77,208.43 1575.15,207.786 1575.91,207.69C1581.68,207.021 1585.61,205.947 1587.69,204.466C1589.76,202.986 1590.8,200.025 1590.8,195.584L1590.8,128.171C1590.8,124.828 1590.38,122.476 1589.55,121.115C1588.71,119.753 1587.24,118.679 1585.14,117.891C1583.05,117.102 1579.97,116.47 1575.91,115.993C1575.15,115.993 1574.77,115.336 1574.77,114.024C1574.77,112.712 1575.15,112.056 1575.91,112.056C1579.11,112.056 1582.93,112.199 1587.36,112.485C1591.61,112.771 1595.18,112.915 1598.09,112.915C1601,112.915 1604.55,112.771 1608.75,112.485C1613.13,112.199 1616.92,112.056 1620.12,112.056C1631.84,112.056 1640.75,114.537 1646.82,119.5C1652.9,124.463 1655.94,131.717 1655.94,141.261ZM1640.12,141.26C1640.12,133.602 1638.25,127.62 1634.5,123.312C1630.76,119.005 1625.78,116.852 1619.58,116.852C1615.85,116.852 1612.98,117.139 1610.95,117.713C1608.92,118.287 1607.49,119.22 1606.65,120.512C1605.82,121.805 1605.4,124.365 1605.4,128.194L1605.4,161.147C1605.4,163.205 1606.05,164.581 1607.34,165.275C1608.62,165.968 1611.42,166.315 1615.71,166.315C1623.49,166.315 1629.5,164.09 1633.75,159.639C1638,155.187 1640.12,149.061 1640.12,141.26Z" />
            <path
   id="path36"
   style="fill:#ffffff;fill-rule:nonzero"
   d="M1684.7,123.079C1684.7,125.084 1683.98,126.825 1682.52,128.305C1681.07,129.784 1679.31,130.524 1677.26,130.524C1675.21,130.524 1673.45,129.784 1672,128.305C1670.54,126.825 1669.82,125.084 1669.82,123.079C1669.82,120.98 1670.53,119.214 1671.96,117.782C1673.39,116.35 1675.16,115.635 1677.26,115.635C1679.31,115.635 1681.07,116.35 1682.52,117.782C1683.98,119.214 1684.7,120.98 1684.7,123.079ZM1694.73,209.623C1694.73,210.959 1694.35,211.627 1693.58,211.627C1691.63,211.627 1689.12,211.484 1686.07,211.198C1682.64,210.912 1679.77,210.768 1677.44,210.768C1675.07,210.768 1672.22,210.912 1668.88,211.198C1665.88,211.484 1663.4,211.627 1661.44,211.627C1660.68,211.627 1660.3,210.959 1660.3,209.623C1660.3,208.43 1660.68,207.786 1661.44,207.69C1665.5,207.166 1668.11,206.189 1669.28,204.76C1670.45,203.33 1671.03,200.281 1671.03,195.611L1671.03,169.164C1671.03,165.352 1670.54,162.851 1669.57,161.659C1668.59,160.468 1666.45,159.681 1663.16,159.3C1662.39,159.3 1662.01,158.668 1662.01,157.402C1662.01,156.234 1662.39,155.65 1663.15,155.65C1668.15,154.361 1672.24,152.989 1675.43,151.533C1678.62,150.078 1680.61,148.873 1681.42,147.919C1681.9,147.346 1682.42,147.06 1682.99,147.06C1684.33,147.06 1684.99,147.441 1684.99,148.205C1684.23,158.895 1683.85,167.198 1683.85,173.116L1683.85,195.593C1683.85,200.27 1684.43,203.324 1685.6,204.755C1686.77,206.187 1689.43,207.165 1693.58,207.69C1694.35,207.786 1694.73,208.43 1694.73,209.623Z" />
            <path
   id="path38"
   style="fill:#ffffff;fill-rule:nonzero"
   d="M1773.31,209.623C1773.31,210.959 1772.93,211.627 1772.17,211.627C1770.26,211.627 1767.92,211.484 1765.15,211.198C1762.1,210.912 1759.41,210.768 1757.08,210.768C1754.7,210.768 1751.97,210.912 1748.88,211.198C1746.07,211.484 1743.72,211.627 1741.81,211.627C1741.05,211.627 1740.67,210.959 1740.67,209.623C1740.67,208.43 1741.05,207.786 1741.82,207.69C1745.11,207.309 1747.27,206.378 1748.3,204.899C1749.32,203.419 1749.83,200.317 1749.83,195.593L1749.83,171.684C1749.83,166.339 1748.78,162.426 1746.68,159.944C1744.59,157.463 1741.34,156.222 1736.95,156.222C1734.18,156.222 1731.74,156.747 1729.61,157.797C1727.49,158.847 1725.21,160.708 1722.78,163.38L1722.78,195.593C1722.78,200.317 1723.29,203.419 1724.32,204.899C1725.34,206.378 1727.5,207.309 1730.79,207.69C1731.56,207.786 1731.94,208.43 1731.94,209.623C1731.94,210.959 1731.56,211.627 1730.79,211.627C1728.84,211.627 1726.45,211.484 1723.63,211.198C1720.53,210.912 1717.81,210.768 1715.47,210.768C1713.18,210.768 1710.51,210.912 1707.46,211.198C1704.64,211.484 1702.26,211.627 1700.3,211.627C1699.54,211.627 1699.15,210.959 1699.15,209.623C1699.15,208.43 1699.54,207.786 1700.3,207.69C1704.4,207.166 1707.05,206.177 1708.25,204.724C1709.44,203.271 1710.03,200.233 1710.03,195.611L1710.03,169.164C1710.03,165.352 1709.55,162.851 1708.57,161.659C1707.59,160.468 1705.4,159.681 1702.02,159.3C1701.25,159.3 1700.87,158.668 1700.87,157.402C1700.87,156.234 1701.25,155.65 1702.02,155.65C1706.74,154.456 1710.68,153.108 1713.83,151.605C1716.98,150.102 1718.96,148.873 1719.77,147.919C1720.25,147.346 1720.77,147.06 1721.34,147.06C1722.68,147.06 1723.35,147.441 1723.35,148.205L1722.78,157.224C1729.63,150.83 1736.02,147.632 1741.92,147.632C1748.4,147.632 1753.47,149.493 1757.11,153.216C1760.75,156.938 1762.58,161.949 1762.58,168.248L1762.58,195.593C1762.58,200.27 1763.16,203.324 1764.33,204.755C1765.5,206.187 1768.11,207.165 1772.17,207.69C1772.93,207.786 1773.31,208.43 1773.31,209.623Z" />
        </g>
        <g
   style="fill:#ffffff"
   id="tagline">
            <path
   id="path41"
   style="fill:#ffffff;fill-rule:nonzero"
   d="M584.221,296.288C584.221,301.065 582.708,306.47 579.683,312.505C576.658,318.539 572.988,323.443 568.673,327.216C564.359,330.99 560.131,332.877 555.992,332.877C552.107,332.877 549.368,330.648 547.776,326.189C542.363,330.648 537.873,332.877 534.306,332.877C531.408,332.877 529.124,331.921 527.452,330.011C525.78,328.1 524.944,325.553 524.944,322.368C524.944,318.547 526.385,313.97 529.267,308.636C532.149,303.302 535.357,299.059 538.892,295.906C537.618,296.416 536.408,296.67 535.262,296.67C534.274,296.67 532.921,296.416 531.201,295.906C529.673,295.397 528.511,295.142 527.715,295.142C525.645,295.142 524.029,295.508 522.866,296.241C521.704,296.973 521.123,297.944 521.123,299.154C521.123,299.727 521.441,300.428 522.078,301.256C522.97,302.402 523.416,303.517 523.416,304.6C523.416,306.765 522.301,307.848 520.072,307.848C518.958,307.848 518.01,307.386 517.23,306.462C516.45,305.539 516.06,304.281 516.06,302.689C516.06,299.95 517.588,296.941 520.645,293.661C523.702,290.381 526.505,288.741 529.052,288.741C530.421,288.741 532.141,289.028 534.211,289.601C535.867,290.047 537.14,290.27 538.032,290.27C539.146,290.27 540.452,290.079 541.949,289.697C542.554,289.506 542.968,289.41 543.191,289.41C543.605,289.41 543.979,289.585 544.313,289.936C544.647,290.286 544.815,290.652 544.815,291.034C544.815,291.767 543.875,293.343 541.996,295.763C538.494,300.221 536.097,304.178 534.808,307.633C533.518,311.088 532.873,314.694 532.873,318.451C532.873,322.846 534.72,325.043 538.414,325.043C541.375,325.043 544.146,324.152 546.725,322.368C546.534,321.031 546.439,319.598 546.439,318.069C546.439,311.159 548.015,304.544 551.167,298.223C554.32,291.902 557.695,288.741 561.294,288.741C564.414,288.741 565.975,291.002 565.975,295.524C565.975,303.389 561.851,311.796 553.603,320.744C554.559,323.61 556.74,325.043 560.147,325.043C564.796,325.043 568.825,322.742 572.232,318.141C575.639,313.54 577.343,308.357 577.343,302.593C577.343,300.619 576.849,298.693 575.862,296.814C575.193,295.572 574.859,294.505 574.859,293.613C574.859,292.181 575.281,291.01 576.125,290.103C576.969,289.195 578.107,288.741 579.54,288.741C580.941,288.741 582.072,289.434 582.931,290.819C583.791,292.204 584.221,294.027 584.221,296.288ZM562.345,296.957C562.345,295.238 561.676,294.378 560.338,294.378C558.077,294.378 556.135,295.962 554.511,299.13C552.887,302.299 552.075,306.287 552.075,311.096C552.075,313.261 552.298,315.235 552.744,317.019C555.705,313.579 558.046,310.077 559.765,306.51C561.485,302.944 562.345,299.759 562.345,296.957Z" />
            <path
   id="path43"
   style="fill:#ffffff;fill-rule:nonzero"
   d="M616.176,295.906C616.176,300.269 614.011,304.194 609.68,307.68C605.349,311.167 600.318,312.911 594.586,312.911C594.395,314.821 594.3,316.541 594.3,318.069C594.3,320.872 594.69,322.878 595.47,324.088C596.25,325.298 597.548,325.903 599.363,325.903C603.439,325.903 607.053,323.562 610.205,318.881L610.492,318.738C610.747,318.738 611.017,318.905 611.304,319.24C611.591,319.574 611.734,319.884 611.734,320.171C611.734,320.84 610.763,322.432 608.82,324.948C606.878,327.463 604.832,329.414 602.682,330.799C600.533,332.184 598.439,332.877 596.401,332.877C593.281,332.877 590.717,331.675 588.711,329.27C586.705,326.866 585.702,324.024 585.702,320.744C585.702,316.159 586.904,311.366 589.308,306.367C591.712,301.367 594.785,297.18 598.527,293.805C602.268,290.429 605.731,288.741 608.916,288.741C611.209,288.741 612.992,289.386 614.266,290.676C615.539,291.966 616.176,293.709 616.176,295.906ZM609.393,297.53C609.393,294.855 608.215,293.518 605.859,293.518C603.566,293.518 601.417,295.078 599.41,298.199C597.404,301.32 595.987,305.205 595.159,309.854C597.834,309.854 600.215,309.288 602.3,308.158C604.386,307.028 606.09,305.404 607.411,303.286C608.733,301.168 609.393,299.25 609.393,297.53Z" />
            <path
   id="path45"
   style="fill:#ffffff;fill-rule:nonzero"
   d="M657.35,298.199C657.35,302.88 655.662,307.879 652.287,313.197C648.911,318.515 644.628,323.125 639.438,327.025C634.247,330.926 629.805,332.877 626.111,332.877C620.125,332.877 617.131,330.329 617.131,325.234C617.131,322.655 617.832,319.534 619.233,315.872L634.423,276.275C635.123,274.428 635.473,272.995 635.473,271.976C635.473,270.734 634.136,269.954 631.461,269.635C630.952,269.572 630.697,269.174 630.697,268.441C630.697,267.677 630.952,267.295 631.461,267.295C633.499,266.913 635.949,266.188 638.81,265.121C641.672,264.055 643.849,263.06 645.343,262.136C645.947,261.754 646.472,261.563 646.917,261.563C647.553,261.563 647.871,261.913 647.871,262.614C647.871,263.282 647.649,264.11 647.203,265.098L632.307,303.931C635.365,299.091 638.583,295.349 641.96,292.706C645.338,290.063 648.524,288.741 651.52,288.741C653.336,288.741 654.761,289.561 655.797,291.201C656.832,292.841 657.35,295.174 657.35,298.199ZM649.612,300.874C649.612,297.689 648.431,296.097 646.071,296.097C643.996,296.097 641.284,297.785 637.934,301.16C634.584,304.536 631.673,308.445 629.2,312.887C626.727,317.329 625.49,320.967 625.49,323.801C625.49,326.412 626.448,327.718 628.362,327.718C631.329,327.718 634.4,326.301 637.575,323.467C640.75,320.633 643.55,316.891 645.975,312.242C648.4,307.593 649.612,303.803 649.612,300.874Z" />
            <path
   id="path47"
   style="fill:#ffffff;fill-rule:nonzero"
   d="M719.206,289.601L705.641,320.935C704.685,323.101 704.208,324.661 704.208,325.616C704.208,326.381 704.526,326.763 705.163,326.763C706.087,326.763 708.156,324.836 711.373,320.983C712.837,319.232 713.665,318.356 713.856,318.356C714.239,318.356 714.589,318.539 714.907,318.905C715.226,319.271 715.385,319.63 715.385,319.98C715.385,320.426 714.223,321.954 711.898,324.565C709.573,327.177 707.368,329.215 705.283,330.679C703.197,332.144 701.437,332.877 700.004,332.877C696.82,332.877 695.228,331.38 695.228,328.387C695.228,325.584 696.565,321.7 699.239,316.732C696.914,321.063 693.817,324.836 689.949,328.052C686.08,331.269 682.713,332.877 679.847,332.877C678.223,332.877 676.942,332.256 676.002,331.014C675.063,329.772 674.593,328.068 674.593,325.903C674.593,321.731 676.346,316.947 679.852,311.549C683.358,306.152 687.661,301.431 692.761,297.387C697.861,293.343 702.132,291.321 705.575,291.321C707.264,291.321 708.635,291.671 709.687,292.372L710.799,289.601C711.277,288.519 712.933,287.977 715.767,287.977C718.092,287.977 719.254,288.423 719.254,289.315L719.206,289.601ZM707.358,297.148C707.358,295.238 706.658,294.282 705.256,294.282C702.55,294.282 699.446,295.787 695.943,298.796C692.441,301.805 689.376,305.507 686.749,309.901C684.122,314.296 682.809,317.942 682.809,320.84C682.809,322.559 683.08,323.785 683.621,324.518C684.162,325.25 685.07,325.616 686.344,325.616C687.967,325.616 690.474,323.761 693.865,320.052C697.257,316.342 700.353,312.131 703.155,307.418C705.957,302.705 707.358,299.282 707.358,297.148Z" />
            <path
   id="path49"
   style="fill:#ffffff;fill-rule:nonzero"
   d="M760.428,295.046C760.428,297.18 759.759,299.823 758.422,302.976L750.875,320.935C749.792,323.546 749.251,325.107 749.251,325.616C749.251,326.381 749.537,326.763 750.11,326.763C751.257,326.763 753.279,325.027 756.177,321.556C757.482,319.996 758.262,319.216 758.517,319.216C758.899,319.216 759.234,319.391 759.52,319.741C759.807,320.091 759.95,320.458 759.95,320.84C759.95,321.381 758.834,322.838 756.602,325.21C754.371,327.583 752.187,329.453 750.051,330.823C747.915,332.192 746.082,332.877 744.552,332.877C743.181,332.877 742.089,332.566 741.277,331.945C740.465,331.324 740.059,330.457 740.059,329.342C740.059,327.527 740.759,324.979 742.16,321.7L749.907,303.262C750.8,301.192 751.246,299.473 751.246,298.103C751.246,296.32 750.515,295.429 749.053,295.429C747.273,295.429 744.642,297.737 741.161,302.355C737.68,306.972 733.793,313.197 729.502,321.031L726.336,330.106C726.177,330.552 725.587,330.934 724.566,331.253C723.545,331.571 722.541,331.73 721.552,331.73C720.627,331.73 719.782,331.595 719.017,331.324C718.251,331.054 717.869,330.727 717.869,330.345L717.916,330.106L727.852,300.683C728.68,298.486 729.094,296.925 729.094,296.002C729.094,295.238 728.807,294.855 728.234,294.855C727.215,294.855 725.416,296.527 722.836,299.871C721.499,301.622 720.687,302.498 720.4,302.498C719.986,302.498 719.628,302.315 719.326,301.949C719.023,301.582 718.872,301.224 718.872,300.874C718.872,300.428 719.924,298.987 722.028,296.551C724.133,294.115 726.165,292.204 728.126,290.819C730.087,289.434 731.785,288.741 733.22,288.741C736.471,288.741 738.097,290.174 738.097,293.04C738.097,294.792 737.619,297.053 736.664,299.823L733.82,307.943C737.476,301.861 741.076,297.14 744.62,293.781C748.165,290.421 751.4,288.741 754.324,288.741C756.041,288.741 757.487,289.331 758.663,290.509C759.84,291.687 760.428,293.2 760.428,295.046Z" />
            <path
   id="path51"
   style="fill:#ffffff;fill-rule:nonzero"
   d="M815.453,262.614C815.453,263.091 815.294,263.919 814.976,265.098L795.44,318.929C794.293,321.986 793.72,323.96 793.72,324.852C793.72,325.871 794.039,326.381 794.675,326.381C795.758,326.381 797.764,324.438 800.694,320.553C801.808,319.088 802.445,318.356 802.605,318.356C803.019,318.356 803.409,318.539 803.775,318.905C804.141,319.271 804.324,319.63 804.324,319.98C804.324,320.521 803.281,322.082 801.195,324.661C799.11,327.24 797.08,329.254 795.105,330.703C793.131,332.152 791.364,332.877 789.803,332.877C786.364,332.877 784.645,331.093 784.645,327.527C784.645,325.234 785.536,322.05 787.32,317.974C784.836,322.241 781.882,325.791 778.459,328.626C775.036,331.46 771.971,332.877 769.264,332.877C767.067,332.877 765.276,332.001 763.891,330.25C762.505,328.498 761.813,326.189 761.813,323.324C761.813,318.802 763.382,313.85 766.521,308.469C769.659,303.087 773.594,298.454 778.326,294.569C783.057,290.684 787.176,288.741 790.681,288.741C791.796,288.741 792.983,288.996 794.241,289.506C795.5,290.015 796.416,290.652 796.99,291.416L802.332,276.275C803.032,274.428 803.381,272.995 803.381,271.976C803.381,270.734 802.013,269.954 799.275,269.635C798.702,269.572 798.415,269.174 798.415,268.441C798.415,267.677 798.67,267.295 799.18,267.295C801.186,266.913 803.604,266.204 806.435,265.169C809.266,264.134 811.413,263.155 812.876,262.232C813.608,261.786 814.149,261.563 814.499,261.563C815.135,261.563 815.453,261.913 815.453,262.614ZM795.254,296.479C795.254,293.359 793.725,291.798 790.668,291.798C787.992,291.798 785.038,293.438 781.805,296.718C778.572,299.998 775.865,304.018 773.683,308.779C771.502,313.54 770.411,317.942 770.411,321.986C770.411,324.979 771.43,326.476 773.468,326.476C775.634,326.476 778.302,324.717 781.471,321.198C784.64,317.679 787.729,313.173 790.739,307.68C793.749,302.187 795.254,298.454 795.254,296.479Z" />
            <path
   id="path53"
   style="fill:#ffffff;fill-rule:nonzero"
   d="M864.317,298.486L858.108,298.294C858.235,299.441 858.299,300.332 858.299,300.969C858.299,306.192 856.197,311.016 851.994,315.442C847.791,319.869 843.014,322.082 837.664,322.082C836.582,322.082 835.722,322.265 835.085,322.631C834.448,322.997 834.13,323.451 834.13,323.992C834.13,324.534 834.591,325.075 835.515,325.616C836.438,326.158 838.54,326.986 841.82,328.1C848.284,330.297 852.647,332.327 854.908,334.19C857.169,336.053 858.299,338.163 858.299,340.519C858.299,343.29 857.248,346.028 855.147,348.735C853.045,351.441 850.282,353.583 846.859,355.159C843.436,356.735 839.766,357.524 835.849,357.524C829.831,357.524 824.951,356.433 821.209,354.252C817.468,352.07 815.597,349.276 815.597,345.869C815.597,343.608 816.982,341.244 819.752,338.776C822.523,336.308 826.073,334.182 830.404,332.399C826.901,330.584 825.15,328.928 825.15,327.431C825.15,326.444 825.659,325.465 826.678,324.494C827.697,323.523 829.672,322.305 832.601,320.84C828.907,318.706 827.06,315.108 827.06,310.045C827.06,304.695 829.106,299.807 833.198,295.381C837.29,290.955 841.995,288.741 847.313,288.741C851.389,288.741 854.414,290.365 856.388,293.613L865.798,293.327C866.212,293.327 866.419,293.725 866.419,294.521C866.419,295.476 866.188,296.376 865.727,297.22C865.265,298.064 864.795,298.486 864.317,298.486ZM850.083,297.148C850.083,293.645 848.81,291.894 846.262,291.894C844.574,291.894 842.815,292.961 840.984,295.094C839.153,297.228 837.712,299.942 836.661,303.238C835.61,306.534 835.085,310.045 835.085,313.77C835.085,315.331 835.427,316.597 836.112,317.568C836.797,318.539 837.728,319.025 838.906,319.025C841.9,319.025 844.511,316.867 846.74,312.552C848.969,308.238 850.083,303.103 850.083,297.148ZM850.943,345.2C850.943,343.067 849.709,341.148 847.241,339.444C844.773,337.741 840.276,335.934 833.748,334.023C830.977,334.851 828.358,336.419 825.89,338.728C823.422,341.037 822.188,343.29 822.188,345.487C822.188,351.473 826.774,354.467 835.945,354.467C839.957,354.467 843.46,353.583 846.453,351.816C849.447,350.048 850.943,347.843 850.943,345.2Z" />
            <path
   id="path55"
   style="fill:#ffffff;fill-rule:nonzero"
   d="M901.909,294.091C901.909,295.683 901.463,296.957 900.57,297.912C899.678,298.868 898.595,299.345 897.32,299.345C896.173,299.345 895.073,298.756 894.022,297.578C893.129,296.591 892.285,296.097 891.489,296.097C889.513,296.097 886.557,299.329 882.622,305.794C878.686,312.258 874.639,320.362 870.478,330.106C870.033,331.189 868.6,331.73 866.18,331.73C865.352,331.73 864.596,331.595 863.911,331.324C863.227,331.054 862.885,330.727 862.885,330.345L862.932,330.106L872.963,300.683C873.791,298.199 874.205,296.639 874.205,296.002C874.205,295.238 873.886,294.855 873.25,294.855C872.231,294.855 870.416,296.575 867.804,300.014C866.531,301.67 865.766,302.498 865.512,302.498C865.066,302.498 864.684,302.315 864.365,301.949C864.047,301.582 863.888,301.224 863.888,300.874C863.888,300.428 864.938,298.987 867.038,296.551C869.139,294.115 871.167,292.204 873.125,290.819C875.082,289.434 876.776,288.741 878.208,288.741C881.518,288.741 883.174,290.174 883.174,293.04C883.174,294.632 882.664,296.893 881.645,299.823L879.84,304.982C885.891,294.155 891.209,288.741 895.794,288.741C897.578,288.741 899.043,289.227 900.189,290.198C901.336,291.169 901.909,292.467 901.909,294.091Z" />
            <path
   id="path57"
   style="fill:#ffffff;fill-rule:nonzero"
   d="M935.966,289.601L922.4,320.935C921.445,323.101 920.967,324.661 920.967,325.616C920.967,326.381 921.286,326.763 921.923,326.763C922.846,326.763 924.916,324.836 928.132,320.983C929.597,319.232 930.425,318.356 930.616,318.356C930.998,318.356 931.348,318.539 931.667,318.905C931.985,319.271 932.144,319.63 932.144,319.98C932.144,320.426 930.982,321.954 928.657,324.565C926.333,327.177 924.128,329.215 922.042,330.679C919.956,332.144 918.197,332.877 916.764,332.877C913.58,332.877 911.987,331.38 911.987,328.387C911.987,325.584 913.324,321.7 915.998,316.732C913.674,321.063 910.577,324.836 906.708,328.052C902.839,331.269 899.472,332.877 896.607,332.877C894.983,332.877 893.701,332.256 892.762,331.014C891.822,329.772 891.353,328.068 891.353,325.903C891.353,321.731 893.106,316.947 896.612,311.549C900.118,306.152 904.421,301.431 909.521,297.387C914.621,293.343 918.892,291.321 922.335,291.321C924.024,291.321 925.394,291.671 926.446,292.372L927.559,289.601C928.037,288.519 929.692,287.977 932.526,287.977C934.851,287.977 936.013,288.423 936.013,289.315L935.966,289.601ZM924.118,297.148C924.118,295.238 923.417,294.282 922.016,294.282C919.31,294.282 916.205,295.787 912.703,298.796C909.2,301.805 906.135,305.507 903.509,309.901C900.882,314.296 899.568,317.942 899.568,320.84C899.568,322.559 899.839,323.785 900.38,324.518C900.922,325.25 901.829,325.616 903.103,325.616C904.727,325.616 907.234,323.761 910.625,320.052C914.016,316.342 917.113,312.131 919.915,307.418C922.717,302.705 924.118,299.282 924.118,297.148Z" />
            <path
   id="path59"
   style="fill:#ffffff;fill-rule:nonzero"
   d="M975.038,302.307C975.038,306.86 973.797,311.549 971.316,316.374C968.834,321.198 965.669,325.155 961.82,328.243C957.97,331.332 954.232,332.877 950.606,332.877C947.584,332.877 945.293,331.507 943.734,328.769L937.704,346.572C937.321,347.72 937.129,348.837 937.129,349.922C937.129,350.847 937.504,351.581 938.252,352.123C939.001,352.665 940.57,353.144 942.958,353.559C943.276,353.559 943.436,353.809 943.436,354.31C943.436,355.561 943.054,356.186 942.289,356.186C935.116,355.613 927.626,355.326 919.821,355.326C919.502,355.326 919.343,355.014 919.343,354.388C919.343,353.982 919.471,353.599 919.725,353.239C919.98,352.879 920.235,352.699 920.49,352.699C925.011,352.38 927.941,350.341 929.278,346.58L945.861,297.53C944.029,298.39 942.008,299.457 939.798,300.731L939.561,300.778C939.245,300.778 938.953,300.611 938.685,300.277C938.416,299.942 938.282,299.584 938.282,299.202C938.282,298.947 938.624,298.597 939.309,298.151C939.993,297.705 940.669,297.275 941.338,296.862C943.375,295.62 945.348,294.569 947.258,293.709L951.633,280.669C951.792,280.223 952.383,279.841 953.405,279.523C954.427,279.204 955.432,279.045 956.422,279.045C957.348,279.045 958.202,279.18 958.984,279.451C959.766,279.722 960.157,280.128 960.157,280.669L957.011,289.792C959.109,289.092 961.176,288.741 963.211,288.741C966.867,288.741 969.752,289.944 971.866,292.348C973.981,294.752 975.038,298.072 975.038,302.307ZM965.771,300.969C965.771,296.065 963.829,293.613 959.945,293.613C958.194,293.613 956.73,293.773 955.552,294.091L947.544,317.687C946.589,320.458 946.111,322.846 946.111,324.852C946.111,328.164 947.639,329.82 950.694,329.82C953.111,329.82 955.512,328.434 957.898,325.664C960.284,322.894 962.193,319.287 963.624,314.845C965.055,310.403 965.771,305.778 965.771,300.969Z" />
            <path
   id="path61"
   style="fill:#ffffff;fill-rule:nonzero"
   d="M1019.7,298.103C1019.7,303.007 1018.46,308.078 1016,313.317C1013.53,318.555 1010.32,323.125 1006.37,327.025C1002.42,330.926 999.096,332.877 996.389,332.877C994.924,332.877 993.65,332.455 992.568,331.611C991.485,330.767 990.944,329.692 990.944,328.387C990.944,327.081 991.373,326.022 992.233,325.21C993.093,324.398 994.223,323.992 995.625,323.992C996.867,323.992 998.124,324.709 999.398,326.142C1000.13,326.938 1000.69,327.336 1001.07,327.336C1002.22,327.336 1003.6,325.863 1005.23,322.918C1006.85,319.972 1008.15,316.469 1009.14,312.409C1010.13,308.349 1010.62,304.249 1010.62,300.11C1010.62,298.486 1010.32,297.188 1009.72,296.217C1009.11,295.245 1008.3,294.76 1007.28,294.76C1005.15,294.76 1002.41,296.448 999.069,299.823C995.727,303.198 992.639,307.513 989.806,312.767C986.973,318.022 984.65,323.801 982.835,330.106C982.708,330.552 982.19,330.934 981.281,331.253C980.372,331.571 979.455,331.73 978.53,331.73C977.732,331.73 976.983,331.595 976.281,331.324C975.58,331.054 975.229,330.727 975.229,330.345L975.277,330.106L992.185,276.275C992.759,274.555 993.045,273.122 993.045,271.976C993.045,270.734 991.644,269.954 988.842,269.635C988.269,269.572 987.982,269.174 987.982,268.441C987.982,267.677 988.205,267.295 988.651,267.295C990.689,266.913 993.108,266.196 995.908,265.145C998.708,264.094 1000.81,263.107 1002.21,262.184C1002.84,261.77 1003.38,261.563 1003.83,261.563C1004.47,261.563 1004.78,261.913 1004.78,262.614C1004.78,263.378 1004.63,264.206 1004.31,265.098L991.999,304.122C998.653,293.868 1005.4,288.741 1012.25,288.741C1014.32,288.741 1016.08,289.625 1017.52,291.392C1018.97,293.16 1019.7,295.397 1019.7,298.103Z" />
            <path
   id="path63"
   style="fill:#ffffff;fill-rule:nonzero"
   d="M1051.61,270.829C1051.61,272.294 1051.08,273.552 1050.03,274.603C1048.98,275.654 1047.72,276.179 1046.26,276.179C1044.73,276.179 1043.44,275.654 1042.39,274.603C1041.34,273.552 1040.81,272.294 1040.81,270.829C1040.81,269.333 1041.34,268.051 1042.39,266.984C1043.44,265.917 1044.73,265.384 1046.26,265.384C1047.72,265.384 1048.98,265.917 1050.03,266.984C1051.08,268.051 1051.61,269.333 1051.61,270.829ZM1045.97,292.754C1045.97,294.728 1045.3,297.084 1043.96,299.823L1033.55,320.935C1032.47,323.101 1031.93,324.661 1031.93,325.616C1031.93,326.381 1032.18,326.763 1032.69,326.763C1033.74,326.763 1035.91,324.868 1039.19,321.079C1040.71,319.264 1041.61,318.356 1041.86,318.356C1042.28,318.356 1042.63,318.539 1042.94,318.905C1043.24,319.271 1043.39,319.63 1043.39,319.98C1043.39,320.426 1042.16,321.946 1039.69,324.542C1037.22,327.137 1034.9,329.175 1032.71,330.656C1030.53,332.136 1028.71,332.877 1027.25,332.877C1024.19,332.877 1022.66,331.476 1022.66,328.673C1022.66,327.049 1023.36,324.725 1024.76,321.7L1035.17,300.683C1036.26,298.517 1036.8,296.893 1036.8,295.811C1036.8,295.174 1036.51,294.855 1035.94,294.855C1034.86,294.855 1032.6,296.846 1029.16,300.826C1027.76,302.45 1026.96,303.262 1026.77,303.262C1026.35,303.262 1026.01,303.095 1025.74,302.761C1025.47,302.426 1025.34,302.052 1025.34,301.638C1025.34,301.16 1026.55,299.632 1028.99,297.053C1031.42,294.473 1033.74,292.443 1035.94,290.962C1038.14,289.482 1039.98,288.741 1041.48,288.741C1044.47,288.741 1045.97,290.079 1045.97,292.754Z" />
            <path
   id="path65"
   style="fill:#ffffff;fill-rule:nonzero"
   d="M1080.55,294.76C1080.55,295.747 1080.24,296.551 1079.62,297.172C1079,297.793 1078.23,298.103 1077.3,298.103C1075.58,298.103 1073.94,297.164 1072.38,295.285C1071.01,293.661 1069.69,292.849 1068.42,292.849C1067.05,292.849 1065.35,294.33 1063.31,297.291C1061.27,300.253 1059.67,303.772 1058.51,307.848C1057.35,311.924 1056.76,316.159 1056.76,320.553C1056.76,324.374 1058.29,326.285 1061.35,326.285C1062.75,326.285 1064.35,325.664 1066.15,324.422C1067.95,323.18 1069.6,321.604 1071.09,319.693L1071.38,319.598C1071.63,319.598 1071.9,319.757 1072.17,320.076C1072.44,320.394 1072.58,320.712 1072.58,321.031C1072.58,321.7 1071.63,323.18 1069.73,325.473C1067.84,327.766 1065.86,329.573 1063.81,330.894C1061.76,332.216 1059.82,332.877 1058.01,332.877C1055.24,332.877 1052.87,331.683 1050.91,329.294C1048.95,326.906 1047.97,324.056 1047.97,320.744C1047.97,316.159 1049.22,311.382 1051.7,306.415C1054.18,301.447 1057.36,297.26 1061.23,293.852C1065.1,290.445 1068.64,288.741 1071.86,288.741C1074.25,288.741 1076.29,289.331 1078,290.509C1079.7,291.687 1080.55,293.104 1080.55,294.76Z" />
            <path
   id="path67"
   style="fill:#ffffff;fill-rule:nonzero"
   d="M1149.81,262.614C1149.81,263.091 1149.65,263.919 1149.33,265.098L1129.8,318.929C1128.65,321.986 1128.08,323.96 1128.08,324.852C1128.08,325.871 1128.4,326.381 1129.03,326.381C1130.12,326.381 1132.12,324.438 1135.05,320.553C1136.17,319.088 1136.8,318.356 1136.96,318.356C1137.38,318.356 1137.77,318.539 1138.13,318.905C1138.5,319.271 1138.68,319.63 1138.68,319.98C1138.68,320.521 1137.64,322.082 1135.55,324.661C1133.47,327.24 1131.44,329.254 1129.46,330.703C1127.49,332.152 1125.72,332.877 1124.16,332.877C1120.72,332.877 1119,331.093 1119,327.527C1119,325.234 1119.89,322.05 1121.68,317.974C1119.19,322.241 1116.24,325.791 1112.82,328.626C1109.39,331.46 1106.33,332.877 1103.62,332.877C1101.42,332.877 1099.63,332.001 1098.25,330.25C1096.86,328.498 1096.17,326.189 1096.17,323.324C1096.17,318.802 1097.74,313.85 1100.88,308.469C1104.02,303.087 1107.95,298.454 1112.68,294.569C1117.41,290.684 1121.53,288.741 1125.04,288.741C1126.15,288.741 1127.34,288.996 1128.6,289.506C1129.86,290.015 1130.77,290.652 1131.35,291.416L1136.69,276.275C1137.39,274.428 1137.74,272.995 1137.74,271.976C1137.74,270.734 1136.37,269.954 1133.63,269.635C1133.06,269.572 1132.77,269.174 1132.77,268.441C1132.77,267.677 1133.03,267.295 1133.54,267.295C1135.54,266.913 1137.96,266.204 1140.79,265.169C1143.62,264.134 1145.77,263.155 1147.23,262.232C1147.97,261.786 1148.51,261.563 1148.86,261.563C1149.49,261.563 1149.81,261.913 1149.81,262.614ZM1129.61,296.479C1129.61,293.359 1128.08,291.798 1125.03,291.798C1122.35,291.798 1119.4,293.438 1116.16,296.718C1112.93,299.998 1110.22,304.018 1108.04,308.779C1105.86,313.54 1104.77,317.942 1104.77,321.986C1104.77,324.979 1105.79,326.476 1107.83,326.476C1109.99,326.476 1112.66,324.717 1115.83,321.198C1119,317.679 1122.09,313.173 1125.1,307.68C1128.11,302.187 1129.61,298.454 1129.61,296.479Z" />
            <path
   id="path69"
   style="fill:#ffffff;fill-rule:nonzero"
   d="M1171.31,295.906C1171.31,300.269 1169.14,304.194 1164.81,307.68C1160.48,311.167 1155.45,312.911 1149.72,312.911C1149.53,314.821 1149.43,316.541 1149.43,318.069C1149.43,320.872 1149.82,322.878 1150.6,324.088C1151.38,325.298 1152.68,325.903 1154.49,325.903C1158.57,325.903 1162.18,323.562 1165.34,318.881L1165.62,318.738C1165.88,318.738 1166.15,318.905 1166.43,319.24C1166.72,319.574 1166.86,319.884 1166.86,320.171C1166.86,320.84 1165.89,322.432 1163.95,324.948C1162.01,327.463 1159.96,329.414 1157.81,330.799C1155.66,332.184 1153.57,332.877 1151.53,332.877C1148.41,332.877 1145.85,331.675 1143.84,329.27C1141.84,326.866 1140.83,324.024 1140.83,320.744C1140.83,316.159 1142.03,311.366 1144.44,306.367C1146.84,301.367 1149.91,297.18 1153.66,293.805C1157.4,290.429 1160.86,288.741 1164.05,288.741C1166.34,288.741 1168.12,289.386 1169.39,290.676C1170.67,291.966 1171.31,293.709 1171.31,295.906ZM1164.52,297.53C1164.52,294.855 1163.35,293.518 1160.99,293.518C1158.7,293.518 1156.55,295.078 1154.54,298.199C1152.53,301.32 1151.12,305.205 1150.29,309.854C1152.96,309.854 1155.34,309.288 1157.43,308.158C1159.52,307.028 1161.22,305.404 1162.54,303.286C1163.86,301.168 1164.52,299.25 1164.52,297.53Z" />
            <path
   id="path71"
   style="fill:#ffffff;fill-rule:nonzero"
   d="M1200.11,293.996C1200.11,296.798 1199.03,298.199 1196.86,298.199C1195.9,298.199 1194.44,297.339 1192.47,295.62C1190.56,293.964 1189.19,293.136 1188.36,293.136C1187.56,293.136 1186.93,293.406 1186.47,293.948C1186.01,294.489 1185.78,295.174 1185.78,296.002C1185.78,297.753 1186.89,301.113 1189.12,306.08C1191.54,311.494 1192.75,315.235 1192.75,317.305C1192.75,321.413 1191.34,325.035 1188.53,328.172C1185.71,331.308 1182.12,332.877 1177.75,332.877C1175.53,332.877 1173.49,332.28 1171.64,331.085C1169.79,329.891 1168.87,328.641 1168.87,327.336C1168.87,326.094 1169.23,325.115 1169.94,324.398C1170.66,323.682 1171.64,323.324 1172.88,323.324C1173.9,323.324 1175.03,324.136 1176.27,325.76C1177.32,327.097 1178.24,327.981 1179.02,328.411C1179.8,328.84 1180.68,329.055 1181.67,329.055C1182.94,329.055 1183.95,328.49 1184.68,327.36C1185.41,326.229 1185.78,324.661 1185.78,322.655C1185.78,321.222 1184.89,318.674 1183.1,315.012C1180.49,309.695 1179.19,305.491 1179.19,302.402C1179.19,299.091 1180.52,295.986 1183.18,293.088C1185.83,290.19 1188.9,288.741 1192.37,288.741C1194.69,288.741 1196.57,289.235 1197.98,290.222C1199.4,291.209 1200.11,292.467 1200.11,293.996Z" />
            <path
   id="path73"
   style="fill:#ffffff;fill-rule:nonzero"
   d="M1228.15,270.829C1228.15,272.294 1227.62,273.552 1226.57,274.603C1225.52,275.654 1224.26,276.179 1222.8,276.179C1221.27,276.179 1219.98,275.654 1218.93,274.603C1217.88,273.552 1217.35,272.294 1217.35,270.829C1217.35,269.333 1217.88,268.051 1218.93,266.984C1219.98,265.917 1221.27,265.384 1222.8,265.384C1224.26,265.384 1225.52,265.917 1226.57,266.984C1227.62,268.051 1228.15,269.333 1228.15,270.829ZM1222.51,292.754C1222.51,294.728 1221.84,297.084 1220.5,299.823L1210.09,320.935C1209.01,323.101 1208.47,324.661 1208.47,325.616C1208.47,326.381 1208.72,326.763 1209.23,326.763C1210.28,326.763 1212.45,324.868 1215.73,321.079C1217.26,319.264 1218.15,318.356 1218.4,318.356C1218.82,318.356 1219.17,318.539 1219.48,318.905C1219.78,319.271 1219.93,319.63 1219.93,319.98C1219.93,320.426 1218.7,321.946 1216.23,324.542C1213.76,327.137 1211.44,329.175 1209.26,330.656C1207.07,332.136 1205.25,332.877 1203.79,332.877C1200.73,332.877 1199.2,331.476 1199.2,328.673C1199.2,327.049 1199.9,324.725 1201.3,321.7L1211.71,300.683C1212.8,298.517 1213.34,296.893 1213.34,295.811C1213.34,295.174 1213.05,294.855 1212.48,294.855C1211.4,294.855 1209.14,296.846 1205.7,300.826C1204.3,302.45 1203.5,303.262 1203.31,303.262C1202.89,303.262 1202.55,303.095 1202.28,302.761C1202.01,302.426 1201.88,302.052 1201.88,301.638C1201.88,301.16 1203.09,299.632 1205.53,297.053C1207.97,294.473 1210.28,292.443 1212.48,290.962C1214.68,289.482 1216.52,288.741 1218.02,288.741C1221.01,288.741 1222.51,290.079 1222.51,292.754Z" />
            <path
   id="path75"
   style="fill:#ffffff;fill-rule:nonzero"
   d="M1264.69,298.486L1258.48,298.294C1258.61,299.441 1258.67,300.332 1258.67,300.969C1258.67,306.192 1256.57,311.016 1252.36,315.442C1248.16,319.869 1243.38,322.082 1238.03,322.082C1236.95,322.082 1236.09,322.265 1235.45,322.631C1234.82,322.997 1234.5,323.451 1234.5,323.992C1234.5,324.534 1234.96,325.075 1235.88,325.616C1236.81,326.158 1238.91,326.986 1242.19,328.1C1248.65,330.297 1253.02,332.327 1255.28,334.19C1257.54,336.053 1258.67,338.163 1258.67,340.519C1258.67,343.29 1257.62,346.028 1255.52,348.735C1253.41,351.441 1250.65,353.583 1247.23,355.159C1243.81,356.735 1240.14,357.524 1236.22,357.524C1230.2,357.524 1225.32,356.433 1221.58,354.252C1217.84,352.07 1215.97,349.276 1215.97,345.869C1215.97,343.608 1217.35,341.244 1220.12,338.776C1222.89,336.308 1226.44,334.182 1230.77,332.399C1227.27,330.584 1225.52,328.928 1225.52,327.431C1225.52,326.444 1226.03,325.465 1227.05,324.494C1228.07,323.523 1230.04,322.305 1232.97,320.84C1229.28,318.706 1227.43,315.108 1227.43,310.045C1227.43,304.695 1229.48,299.807 1233.57,295.381C1237.66,290.955 1242.37,288.741 1247.68,288.741C1251.76,288.741 1254.78,290.365 1256.76,293.613L1266.17,293.327C1266.58,293.327 1266.79,293.725 1266.79,294.521C1266.79,295.476 1266.56,296.376 1266.1,297.22C1265.63,298.064 1265.16,298.486 1264.69,298.486ZM1250.45,297.148C1250.45,293.645 1249.18,291.894 1246.63,291.894C1244.94,291.894 1243.18,292.961 1241.35,295.094C1239.52,297.228 1238.08,299.942 1237.03,303.238C1235.98,306.534 1235.45,310.045 1235.45,313.77C1235.45,315.331 1235.8,316.597 1236.48,317.568C1237.17,318.539 1238.1,319.025 1239.28,319.025C1242.27,319.025 1244.88,316.867 1247.11,312.552C1249.34,308.238 1250.45,303.103 1250.45,297.148ZM1251.31,345.2C1251.31,343.067 1250.08,341.148 1247.61,339.444C1245.14,337.741 1240.64,335.934 1234.12,334.023C1231.35,334.851 1228.73,336.419 1226.26,338.728C1223.79,341.037 1222.56,343.29 1222.56,345.487C1222.56,351.473 1227.14,354.467 1236.32,354.467C1240.33,354.467 1243.83,353.583 1246.82,351.816C1249.82,350.048 1251.31,347.843 1251.31,345.2Z" />
            <path
   id="path77"
   style="fill:#ffffff;fill-rule:nonzero"
   d="M1305.81,295.046C1305.81,297.18 1305.14,299.823 1303.81,302.976L1296.26,320.935C1295.18,323.546 1294.64,325.107 1294.64,325.616C1294.64,326.381 1294.92,326.763 1295.5,326.763C1296.64,326.763 1298.66,325.027 1301.56,321.556C1302.87,319.996 1303.65,319.216 1303.9,319.216C1304.29,319.216 1304.62,319.391 1304.91,319.741C1305.19,320.091 1305.34,320.458 1305.34,320.84C1305.34,321.381 1304.22,322.838 1301.99,325.21C1299.76,327.583 1297.57,329.453 1295.44,330.823C1293.3,332.192 1291.47,332.877 1289.94,332.877C1288.57,332.877 1287.48,332.566 1286.66,331.945C1285.85,331.324 1285.44,330.457 1285.44,329.342C1285.44,327.527 1286.14,324.979 1287.55,321.7L1295.29,303.262C1296.18,301.192 1296.63,299.473 1296.63,298.103C1296.63,296.32 1295.9,295.429 1294.44,295.429C1292.66,295.429 1290.03,297.737 1286.55,302.355C1283.07,306.972 1279.18,313.197 1274.89,321.031L1271.72,330.106C1271.56,330.552 1270.97,330.934 1269.95,331.253C1268.93,331.571 1267.93,331.73 1266.94,331.73C1266.01,331.73 1265.17,331.595 1264.4,331.324C1263.64,331.054 1263.25,330.727 1263.25,330.345L1263.3,330.106L1273.24,300.683C1274.07,298.486 1274.48,296.925 1274.48,296.002C1274.48,295.238 1274.19,294.855 1273.62,294.855C1272.6,294.855 1270.8,296.527 1268.22,299.871C1266.88,301.622 1266.07,302.498 1265.79,302.498C1265.37,302.498 1265.01,302.315 1264.71,301.949C1264.41,301.582 1264.26,301.224 1264.26,300.874C1264.26,300.428 1265.31,298.987 1267.41,296.551C1269.52,294.115 1271.55,292.204 1273.51,290.819C1275.47,289.434 1277.17,288.741 1278.61,288.741C1281.86,288.741 1283.48,290.174 1283.48,293.04C1283.48,294.792 1283,297.053 1282.05,299.823L1279.21,307.943C1282.86,301.861 1286.46,297.14 1290.01,293.781C1293.55,290.421 1296.79,288.741 1299.71,288.741C1301.43,288.741 1302.87,289.331 1304.05,290.509C1305.23,291.687 1305.81,293.2 1305.81,295.046Z" />
        </g>
        <path
   d="M 228.54688 0 C 102.32588 0 -3.7895613e-14 102.32597 0 228.54297 C 0 354.76797 102.32588 457.0918 228.54688 457.0918 C 354.76788 457.0918 457.0918 354.76797 457.0918 228.54297 C 457.0918 102.32597 354.76787 -1.8947806e-14 228.54688 0 z M 321.1582 153.54688 C 323.0372 153.54688 326.12197 153.8167 330.41797 154.3457 C 334.70897 154.8827 336.59659 155.74903 336.05859 156.95703 L 329.58203 176.21289 C 331.84903 175.41689 333.92588 174.84181 335.79688 174.50781 C 337.65888 174.17481 339.59961 174.01367 341.59961 174.01367 C 351.08261 174.01367 359.05897 176.38791 365.54297 181.12891 C 372.01797 185.87891 375.25781 194 375.25781 205.5 C 375.25781 220.746 369.712 235.29981 358.625 249.13281 C 347.542 262.97481 333.78719 269.9043 317.36719 269.9043 C 313.49619 269.9043 309.98261 269.16641 306.84961 267.69141 C 303.71661 266.21641 301.5457 264.34912 300.3457 262.07812 L 288.93359 295.44922 C 288.39259 296.91622 288.02813 298.21719 287.82812 299.36719 C 287.62412 300.49619 287.5293 301.54542 287.5293 302.48242 C 287.5293 305.28742 288.99541 307.1998 291.94141 308.2168 C 294.88241 309.2208 297.5617 309.854 299.9707 310.125 C 300.2367 310.125 300.46278 310.28828 300.67578 310.61328 C 300.87578 310.94628 300.9707 311.31203 300.9707 311.70703 C 300.9707 312.75703 300.57558 314.22422 299.76758 316.07422 C 298.96758 317.92022 298.2295 318.85352 297.5625 318.85352 C 289.2585 318.17852 278.72833 317.70731 265.98633 317.44531 C 253.23633 317.17831 250.0173 317.04297 242.6543 317.04297 C 242.5253 317.04297 242.3622 316.68222 242.1582 315.94922 C 241.9872 315.34922 241.90781 314.65878 241.88281 313.92578 C 233.46681 317.79678 224.82812 319.76758 215.95312 319.76758 C 201.10313 319.76758 189.23789 317.1495 180.33789 311.9375 C 171.45489 306.7205 167 300.64259 167 293.68359 C 167 287.93359 169.10741 283.25448 173.31641 279.64648 C 177.52841 276.03348 184.65741 273.5577 194.69141 272.2207 C 190.13241 270.4787 186.59269 268.44142 184.05469 266.10742 C 182.36769 264.54542 181.24669 262.81369 180.67969 260.92969 L 180.62891 260.9668 C 180.59591 260.7458 180.55858 260.53789 180.51758 260.33789 C 180.49658 260.27489 180.4827 260.20839 180.4707 260.15039 C 179.7787 257.14239 177.94639 256.22139 172.27539 259.90039 C 164.29639 265.44239 156.371 268.25391 148.5 268.25391 C 143.017 268.25391 138.94172 267.2747 136.26172 265.3457 C 133.59572 263.4037 132.25391 260.49209 132.25391 256.62109 C 132.25391 254.60409 132.49103 252.53848 132.95703 250.39648 C 133.42403 248.25448 134.32988 245.4457 135.67188 241.9707 L 149.47852 209.27148 C 150.40752 206.86348 151.11122 204.854 151.57422 203.25 C 152.04122 201.646 152.2793 200.04141 152.2793 198.44141 C 152.2793 196.56241 152.04122 195.15752 151.57422 194.22852 C 151.11122 193.28752 149.93641 192.82422 148.06641 192.82422 C 144.84941 192.82422 139.93641 197.7078 133.31641 207.4668 C 126.69541 217.2328 120.71142 228.1292 115.35742 240.1582 L 107.56641 262.42969 C 107.16141 263.50469 104.88719 264.3325 100.74219 264.9375 C 96.592187 265.5375 93.646203 265.83789 91.908203 265.83789 C 90.300203 265.83789 87.087391 265.5375 82.275391 264.9375 C 77.458391 264.3325 75.182219 263.50469 75.449219 262.42969 L 95.3125 202.44531 C 96.2425 199.77831 96.9125 197.70752 97.3125 196.22852 C 97.7215 194.75752 97.917969 193.49297 97.917969 192.41797 C 97.917969 191.75497 97.754969 191.21641 97.417969 190.81641 C 97.083969 190.41641 96.641328 190.21289 96.111328 190.21289 C 94.103328 190.21289 91.500203 192.04952 88.283203 195.72852 C 85.075203 199.40352 82.937187 201.25 81.867188 201.25 C 80.800187 201.25 79.729203 200.51211 78.658203 199.03711 C 77.592203 197.56611 77.050781 196.62852 77.050781 196.22852 C 77.050781 193.82052 80.761406 189.23819 88.191406 182.49219 C 95.620406 175.73819 103.27969 172.36328 111.17969 172.36328 C 116.93769 172.36328 121.47813 173.92841 124.82812 177.06641 C 128.16613 180.21241 129.84961 184.39142 129.84961 189.60742 C 129.84961 190.81642 129.77558 191.88222 129.64258 192.82422 C 129.50458 193.75322 129.2417 194.69181 128.8457 195.63281 L 126.09961 203.25 C 130.64161 195.363 136.91759 188.23867 144.93359 181.88867 C 152.93759 175.53867 160.74942 172.36328 168.35742 172.36328 C 173.02842 172.36328 177.24152 173.7287 180.97852 176.4707 C 184.72052 179.2167 186.58789 183.25752 186.58789 188.60352 C 186.58789 191.28252 186.22033 194.2582 185.48633 197.5332 C 184.74133 200.8132 183.77831 203.7878 182.57031 206.4668 L 170.5 236.74609 C 169.3 239.55409 168.42548 241.72967 167.89648 243.26367 C 167.35848 244.80467 167.0918 245.90312 167.0918 246.57812 C 167.0918 247.51212 167.22519 248.14161 167.49219 248.47461 C 167.75819 248.81661 168.15731 248.98242 168.69531 248.98242 C 169.39531 248.98242 170.7288 248.59239 172.3418 248.02539 C 172.4618 247.98839 172.59952 247.93848 172.72852 247.89648 C 177.52852 245.77148 183.67812 242.3245 187.95312 240.6875 C 194.63612 238.1285 197.92988 238.94697 205.92188 237.91797 C 200.30488 235.11397 196.15742 231.73211 193.48242 227.78711 C 190.80342 223.84111 189.47461 219.12958 189.47461 213.64258 C 189.47461 201.20058 194.45488 191.17159 204.42188 183.55859 C 214.37987 175.93359 225.17431 172.11719 236.82031 172.11719 C 244.97431 172.11719 251.46248 173.34922 256.27148 175.82422 C 261.04648 178.28222 264.82491 181.49112 267.62891 185.45312 L 267.70312 185.39648 C 270.53213 189.45848 274.60469 191.62411 279.92969 191.91211 C 283.66269 192.11611 288.09912 190.82052 293.20312 188.10352 C 293.53213 187.13752 293.93641 185.93731 294.44141 184.44531 L 303.83789 156.95703 C 304.10889 155.88703 306.75011 155.04913 311.78711 154.45312 C 316.82511 153.84912 319.9462 153.54688 321.1582 153.54688 z M 238.625 181.74219 C 234.608 181.74219 230.15839 186.32928 225.27539 195.48828 C 220.39639 204.65028 217.95312 214.10809 217.95312 223.87109 C 217.95312 226.42109 218.5252 228.4918 219.6582 230.0918 C 220.8002 231.6998 222.50039 232.5 224.77539 232.5 C 229.99239 232.5 234.71278 227.75381 238.92578 218.25781 C 243.13778 208.75781 245.24219 199.53722 245.24219 190.57422 C 245.24219 188.03722 244.6425 185.92091 243.4375 184.25391 C 242.2335 182.58291 240.633 181.74219 238.625 181.74219 z M 334.04297 186.44141 C 332.32197 186.44141 330.90048 186.61622 329.77148 186.94922 C 328.64648 187.28222 327.225 187.78222 325.5 188.44922 L 309.5625 234.79297 C 308.4925 237.87197 307.729 240.64609 307.25 243.12109 C 306.783 245.59209 306.55078 247.83789 306.55078 249.83789 C 306.55078 253.05389 307.45381 255.55419 309.25781 257.36719 C 311.05381 259.16719 313.0292 260.07031 315.1582 260.07031 C 321.1582 260.07031 327.42803 253.38781 333.95703 240.00781 C 340.49103 226.63781 343.75781 213.39911 343.75781 200.28711 C 343.75781 194.54111 342.86622 190.79269 341.07422 189.05469 C 339.29122 187.31769 336.94697 186.44141 334.04297 186.44141 z M 288.75391 201.37891 C 283.16691 203.78791 277.8085 205.2785 272.6875 205.8125 C 272.2835 216.6955 267.75889 225.39648 259.08789 231.89648 C 249.98389 238.71748 237.41219 242.12891 221.36719 242.12891 C 217.35819 242.12891 214.5077 242.69103 212.8457 243.83203 C 211.1707 244.97403 210.3418 246.00722 210.3418 246.94922 C 210.3418 250.02822 213.85019 252.3875 220.86719 254.0625 C 227.88719 255.7415 234.01152 257.3132 239.22852 258.7832 C 246.04152 260.5212 252.5672 263.26691 258.7832 267.00391 C 261.1582 268.43291 263.07197 270.10009 264.54297 271.99609 L 288.75391 201.37891 z M 205.31641 276.63281 C 200.00741 277.56681 195.9463 279.30361 193.1543 281.84961 C 190.3673 284.39161 188.9707 288.07167 188.9707 292.88867 C 188.9707 297.83367 191.0753 301.94161 195.2793 305.22461 C 199.4833 308.49561 206.5253 310.13281 216.4043 310.13281 C 224.8123 310.13281 231.31769 308.40088 235.92969 304.92188 C 240.53369 301.44688 242.83203 297.76281 242.83203 293.88281 C 242.83203 288.66681 239.29522 285.02422 232.19922 282.94922 C 225.11122 280.88222 216.15341 278.77481 205.31641 276.63281 z "
   style="fill:#ffffff;fill-rule:nonzero"
   id="Circle" />
        
    </g>
</svg>
