<?xml version="1.0" encoding="UTF-8" standalone="no"?>
<!DOCTYPE svg PUBLIC "-//W3C//DTD SVG 1.1//EN" "http://www.w3.org/Graphics/SVG/1.1/DTD/svg11.dtd">
<svg width="100%" height="100%" viewBox="0 0 300 167" version="1.1" xmlns="http://www.w3.org/2000/svg" xmlns:xlink="http://www.w3.org/1999/xlink" xml:space="preserve" xmlns:serif="http://www.serif.com/" style="fill-rule:evenodd;clip-rule:evenodd;stroke-linejoin:round;stroke-miterlimit:2;">
    <path d="M258.613,32.896C256.892,32.896 255.471,33.071 254.342,33.404C253.217,33.738 251.796,34.238 250.071,34.904L234.133,81.246C233.063,84.325 232.3,87.1 231.821,89.575C231.354,92.046 231.121,94.292 231.121,96.292C231.121,99.508 232.025,102.008 233.829,103.821C235.625,105.621 237.6,106.525 239.729,106.525C245.729,106.525 252,99.842 258.529,86.463C265.063,73.092 268.329,59.854 268.329,46.742C268.329,40.996 267.438,37.246 265.646,35.508C263.863,33.771 261.517,32.896 258.613,32.896M156.771,129.404C149.683,127.338 140.725,125.229 129.888,123.088C124.579,124.021 120.517,125.758 117.725,128.304C114.938,130.846 113.542,134.525 113.542,139.342C113.542,144.288 115.646,148.396 119.85,151.679C124.054,154.95 131.096,156.588 140.975,156.588C149.383,156.588 155.888,154.854 160.5,151.375C165.104,147.9 167.404,144.217 167.404,140.338C167.404,135.121 163.867,131.479 156.771,129.404M183.658,78.35C174.554,85.171 161.983,88.583 145.938,88.583C141.929,88.583 139.079,89.146 137.417,90.288C135.742,91.429 134.913,92.463 134.913,93.404C134.913,96.483 138.421,98.842 145.438,100.517C152.458,102.196 158.583,103.767 163.8,105.238C170.613,106.975 177.138,109.721 183.354,113.458C185.729,114.888 187.642,116.554 189.113,118.45L213.325,47.833C207.738,50.242 202.379,51.733 197.258,52.267C196.854,63.15 192.329,71.85 183.658,78.35M149.346,78.954C154.563,78.954 159.283,74.208 163.496,64.713C167.708,55.213 169.813,45.992 169.813,37.029C169.813,34.492 169.213,32.375 168.008,30.708C166.804,29.038 165.204,28.196 163.196,28.196C159.179,28.196 154.729,32.783 149.846,41.942C144.967,51.104 142.525,60.563 142.525,70.325C142.525,72.875 143.096,74.946 144.229,76.546C145.371,78.154 147.071,78.954 149.346,78.954M283.196,95.588C272.113,109.429 258.358,116.358 241.938,116.358C238.067,116.358 234.554,115.621 231.421,114.146C228.288,112.671 226.117,110.804 224.917,108.533L213.504,141.904C212.963,143.371 212.6,144.671 212.4,145.821C212.196,146.95 212.1,148 212.1,148.938C212.1,151.742 213.567,153.654 216.513,154.671C219.454,155.675 222.133,156.308 224.542,156.579C224.808,156.579 225.033,156.742 225.246,157.067C225.446,157.4 225.542,157.767 225.542,158.163C225.542,159.213 225.146,160.679 224.338,162.529C223.538,164.375 222.8,165.308 222.133,165.308C213.829,164.633 203.3,164.163 190.558,163.9C177.808,163.633 174.588,163.496 167.225,163.496C167.096,163.496 166.933,163.138 166.729,162.404C166.558,161.804 166.479,161.113 166.454,160.379C158.038,164.25 149.4,166.221 140.525,166.221C125.675,166.221 113.808,163.604 104.908,158.392C96.025,153.175 91.571,147.096 91.571,140.138C91.571,134.388 93.679,129.708 97.888,126.1C102.1,122.488 109.229,120.013 119.263,118.675C114.704,116.933 111.163,114.896 108.625,112.563C106.938,111 105.817,109.267 105.25,107.383L105.2,107.421C105.167,107.2 105.129,106.992 105.088,106.792C105.067,106.729 105.054,106.663 105.042,106.604C104.35,103.596 102.517,102.675 96.846,106.354C88.867,111.896 80.942,114.708 73.071,114.708C67.588,114.708 63.513,113.729 60.833,111.8C58.167,109.858 56.825,106.946 56.825,103.075C56.825,101.058 57.063,98.992 57.529,96.85C57.996,94.708 58.9,91.9 60.242,88.425L74.05,55.725C74.979,53.317 75.683,51.308 76.146,49.704C76.613,48.1 76.85,46.496 76.85,44.896C76.85,43.017 76.613,41.613 76.146,40.683C75.683,39.742 74.508,39.279 72.638,39.279C69.421,39.279 64.508,44.163 57.888,53.921C51.267,63.688 45.283,74.583 39.929,86.613L32.138,108.883C31.733,109.958 29.458,110.788 25.313,111.392C21.163,111.992 18.217,112.292 16.479,112.292C14.871,112.292 11.658,111.992 6.846,111.392C2.029,110.788 -0.246,109.958 0.021,108.883L19.883,48.9C20.813,46.233 21.483,44.163 21.883,42.683C22.292,41.213 22.488,39.946 22.488,38.871C22.488,38.208 22.325,37.671 21.988,37.271C21.654,36.871 21.213,36.667 20.683,36.667C18.675,36.667 16.071,38.504 12.854,42.183C9.646,45.858 7.508,47.704 6.438,47.704C5.371,47.704 4.3,46.967 3.229,45.492C2.163,44.021 1.621,43.083 1.621,42.683C1.621,40.275 5.333,35.692 12.763,28.946C20.192,22.192 27.85,18.817 35.75,18.817C41.508,18.817 46.05,20.383 49.4,23.521C52.738,26.667 54.421,30.846 54.421,36.063C54.421,37.271 54.346,38.338 54.213,39.279C54.075,40.208 53.813,41.146 53.417,42.088L50.671,49.704C55.213,41.817 61.488,34.692 69.504,28.342C77.508,21.992 85.321,18.817 92.929,18.817C97.6,18.817 101.813,20.183 105.55,22.925C109.292,25.671 111.158,29.713 111.158,35.058C111.158,37.738 110.792,40.713 110.058,43.988C109.313,47.267 108.35,50.242 107.142,52.921L95.071,83.2C93.871,86.008 92.996,88.183 92.467,89.717C91.929,91.258 91.663,92.358 91.663,93.033C91.663,93.967 91.796,94.596 92.063,94.929C92.329,95.271 92.729,95.438 93.267,95.438C93.967,95.438 95.3,95.046 96.913,94.479C97.033,94.442 97.171,94.392 97.3,94.35C102.1,92.225 108.25,88.779 112.525,87.142C119.208,84.583 122.5,85.4 130.492,84.371C124.875,81.567 120.729,78.188 118.054,74.242C115.375,70.296 114.046,65.583 114.046,60.096C114.046,47.654 119.025,37.625 128.992,30.013C138.95,22.388 149.746,18.571 161.392,18.571C169.546,18.571 176.033,19.804 180.842,22.279C185.617,24.738 189.396,27.946 192.2,31.908L192.275,31.85C195.104,35.913 199.175,38.079 204.5,38.367C208.233,38.571 212.671,37.275 217.775,34.558C218.104,33.592 218.508,32.392 219.013,30.9L228.408,3.413C228.679,2.342 231.321,1.504 236.358,0.908C241.396,0.304 244.517,0 245.729,0C247.608,0 250.692,0.271 254.988,0.8C259.279,1.338 261.167,2.204 260.629,3.413L254.154,22.667C256.421,21.871 258.496,21.296 260.367,20.963C262.229,20.629 264.171,20.467 266.171,20.467C275.654,20.467 283.629,22.842 290.113,27.583C296.588,32.333 299.829,40.454 299.829,51.954C299.829,67.2 294.283,81.754 283.196,95.588" style="fill:#fff;fill-rule:nonzero;"/>
</svg>
