<?xml version="1.0" encoding="UTF-8" standalone="no"?><!DOCTYPE svg PUBLIC "-//W3C//DTD SVG 1.1//EN" "http://www.w3.org/Graphics/SVG/1.1/DTD/svg11.dtd"><svg width="100%" height="100%" viewBox="0 0 84 84" version="1.1" xmlns="http://www.w3.org/2000/svg" xmlns:xlink="http://www.w3.org/1999/xlink" xml:space="preserve" xmlns:serif="http://www.serif.com/" style="fill-rule:evenodd;clip-rule:evenodd;stroke-linejoin:round;stroke-miterlimit:2;"><path d="M41.667,0c22.996,0 41.666,18.67 41.666,41.667c0,22.996 -18.67,41.666 -41.666,41.666c-22.997,0 -41.667,-18.67 -41.667,-41.666c0,-22.997 18.67,-41.667 41.667,-41.667Zm20.074,44.088l-3.87,0l0,13.889c0,1.03 -0.45,2.315 -2.315,2.315l-9.26,0l0,-13.889l-9.259,0l0,13.889l-9.259,0c-1.866,0 -2.315,-1.285 -2.315,-2.315l0,-13.889l-3.87,0c-1.385,0 -1.088,-0.75 -0.139,-1.732l18.574,-18.592c0.451,-0.468 1.044,-0.699 1.639,-0.722c0.595,0.023 1.187,0.252 1.639,0.722l18.571,18.59c0.952,0.984 1.248,1.734 -0.136,1.734Z" style="fill:#fff;"/></svg>